<svg version="1.1" viewBox="0.0 0.0 797.0 472.0" fill="none" stroke="none" stroke-linecap="square" stroke-miterlimit="10" width="797" height="472" xmlns:xlink="http://www.w3.org/1999/xlink" xmlns="http://www.w3.org/2000/svg"><path fill="#ffffff" d="M0 0L797.0 0L797.0 472.0L0 472.0L0 0Z" fill-rule="nonzero"/><path stroke="#333333" stroke-width="1.0" stroke-linecap="butt" d="M50.5 424.5L773.5 424.5" fill-rule="nonzero"/><path stroke="#cccccc" stroke-width="1.0" stroke-linecap="butt" d="M50.5 372.5L773.5 372.5" fill-rule="nonzero"/><path stroke="#cccccc" stroke-width="1.0" stroke-linecap="butt" d="M50.5 321.5L773.5 321.5" fill-rule="nonzero"/><path stroke="#cccccc" stroke-width="1.0" stroke-linecap="butt" d="M50.5 269.5L773.5 269.5" fill-rule="nonzero"/><path stroke="#cccccc" stroke-width="1.0" stroke-linecap="butt" d="M50.5 218.5L773.5 218.5" fill-rule="nonzero"/><path stroke="#cccccc" stroke-width="1.0" stroke-linecap="butt" d="M50.5 166.5L773.5 166.5" fill-rule="nonzero"/><path stroke="#cccccc" stroke-width="1.0" stroke-linecap="butt" d="M50.5 115.5L773.5 115.5" fill-rule="nonzero"/><path stroke="#cccccc" stroke-width="1.0" stroke-linecap="butt" d="M50.5 63.5L773.5 63.5" fill-rule="nonzero"/><path stroke="#000000" stroke-width="1.0" stroke-linecap="butt" d="M50.5 424.5L50.5 63.5" fill-rule="nonzero"/><clipPath id="id_0"><path d="M50.6 63.833332L773.4 63.833332L773.4 424.4L50.6 424.4L50.6 63.833332Z" clip-rule="nonzero"/></clipPath><path stroke="#9900ff" stroke-width="4.0" stroke-linecap="butt" clip-path="url(#id_0)" d="M122.88 424.4L267.44 372.89047L412.0 424.4L556.56 424.4L701.12 424.4" fill-rule="nonzero"/><path stroke="#ff0000" stroke-width="2.0" stroke-linecap="butt" stroke-dasharray="8.0,6.0" clip-path="url(#id_0)" d="M122.88 424.4L267.44 424.4L412.0 424.4L556.56 424.4L701.12 424.4" fill-rule="nonzero"/><path stroke="#00b050" stroke-width="3.0" stroke-linecap="butt" stroke-dasharray="11.0,8.0" clip-path="url(#id_0)" d="M122.88 424.4L267.44 424.4L412.0 424.4L556.56 424.4L701.12 424.4" fill-rule="nonzero"/><path fill="#9900ff" clip-path="url(#id_0)" d="M126.38 424.4C126.38 426.333 124.812996 427.9 122.88 427.9C120.94701 427.9 119.38 426.333 119.38 424.4C119.38 422.467 120.94701 420.9 122.88 420.9C124.812996 420.9 126.38 422.467 126.38 424.4Z" fill-rule="nonzero"/><path fill="#9900ff" clip-path="url(#id_0)" d="M270.94 372.89047C270.94 374.8235 269.373 376.39047 267.44 376.39047C265.507 376.39047 263.94 374.8235 263.94 372.89047C263.94 370.9575 265.507 369.39047 267.44 369.39047C269.373 369.39047 270.94 370.9575 270.94 372.89047Z" fill-rule="nonzero"/><path fill="#9900ff" clip-path="url(#id_0)" d="M415.5 424.4C415.5 426.333 413.93298 427.9 412.0 427.9C410.06702 427.9 408.5 426.333 408.5 424.4C408.5 422.467 410.06702 420.9 412.0 420.9C413.93298 420.9 415.5 422.467 415.5 424.4Z" fill-rule="nonzero"/><path fill="#9900ff" clip-path="url(#id_0)" d="M560.06 424.4C560.06 426.333 558.493 427.9 556.56 427.9C554.627 427.9 553.06 426.333 553.06 424.4C553.06 422.467 554.627 420.9 556.56 420.9C558.493 420.9 560.06 422.467 560.06 424.4Z" fill-rule="nonzero"/><path fill="#9900ff" clip-path="url(#id_0)" d="M704.62 424.4C704.62 426.333 703.053 427.9 701.12 427.9C699.187 427.9 697.62 426.333 697.62 424.4C697.62 422.467 699.187 420.9 701.12 420.9C703.053 420.9 704.62 422.467 704.62 424.4Z" fill-rule="nonzero"/><path fill="#000000" fill-opacity="0.0" clip-path="url(#id_0)" d="M125.88 424.4C125.88 426.05685 124.53686 427.4 122.88 427.4C121.223145 427.4 119.88 426.05685 119.88 424.4C119.88 422.74313 121.223145 421.4 122.88 421.4C124.53686 421.4 125.88 422.74313 125.88 424.4Z" fill-rule="nonzero"/><path fill="#000000" fill-opacity="0.0" clip-path="url(#id_0)" d="M270.44 424.4C270.44 426.05685 269.09686 427.4 267.44 427.4C265.78314 427.4 264.44 426.05685 264.44 424.4C264.44 422.74313 265.78314 421.4 267.44 421.4C269.09686 421.4 270.44 422.74313 270.44 424.4Z" fill-rule="nonzero"/><path fill="#000000" fill-opacity="0.0" clip-path="url(#id_0)" d="M415.0 424.4C415.0 426.05685 413.65686 427.4 412.0 427.4C410.34314 427.4 409.0 426.05685 409.0 424.4C409.0 422.74313 410.34314 421.4 412.0 421.4C413.65686 421.4 415.0 422.74313 415.0 424.4Z" fill-rule="nonzero"/><path fill="#000000" fill-opacity="0.0" clip-path="url(#id_0)" d="M559.56 424.4C559.56 426.05685 558.21686 427.4 556.56 427.4C554.90314 427.4 553.56 426.05685 553.56 424.4C553.56 422.74313 554.90314 421.4 556.56 421.4C558.21686 421.4 559.56 422.74313 559.56 424.4Z" fill-rule="nonzero"/><path fill="#000000" fill-opacity="0.0" clip-path="url(#id_0)" d="M704.12 424.4C704.12 426.05685 702.77686 427.4 701.12 427.4C699.46313 427.4 698.12 426.05685 698.12 424.4C698.12 422.74313 699.46313 421.4 701.12 421.4C702.77686 421.4 704.12 422.74313 704.12 424.4Z" fill-rule="nonzero"/><path fill="#000000" fill-opacity="0.0" clip-path="url(#id_0)" d="M125.88 424.4C125.88 426.05685 124.53686 427.4 122.88 427.4C121.223145 427.4 119.88 426.05685 119.88 424.4C119.88 422.74313 121.223145 421.4 122.88 421.4C124.53686 421.4 125.88 422.74313 125.88 424.4Z" fill-rule="nonzero"/><path fill="#000000" fill-opacity="0.0" clip-path="url(#id_0)" d="M270.44 424.4C270.44 426.05685 269.09686 427.4 267.44 427.4C265.78314 427.4 264.44 426.05685 264.44 424.4C264.44 422.74313 265.78314 421.4 267.44 421.4C269.09686 421.4 270.44 422.74313 270.44 424.4Z" fill-rule="nonzero"/><path fill="#000000" fill-opacity="0.0" clip-path="url(#id_0)" d="M415.0 424.4C415.0 426.05685 413.65686 427.4 412.0 427.4C410.34314 427.4 409.0 426.05685 409.0 424.4C409.0 422.74313 410.34314 421.4 412.0 421.4C413.65686 421.4 415.0 422.74313 415.0 424.4Z" fill-rule="nonzero"/><path fill="#000000" fill-opacity="0.0" clip-path="url(#id_0)" d="M559.56 424.4C559.56 426.05685 558.21686 427.4 556.56 427.4C554.90314 427.4 553.56 426.05685 553.56 424.4C553.56 422.74313 554.90314 421.4 556.56 421.4C558.21686 421.4 559.56 422.74313 559.56 424.4Z" fill-rule="nonzero"/><path fill="#000000" fill-opacity="0.0" clip-path="url(#id_0)" d="M704.12 424.4C704.12 426.05685 702.77686 427.4 701.12 427.4C699.46313 427.4 698.12 426.05685 698.12 424.4C698.12 422.74313 699.46313 421.4 701.12 421.4C702.77686 421.4 704.12 422.74313 704.12 424.4Z" fill-rule="nonzero"/><path fill="#000000" d="M43.6625 423.94687L43.6625 425.25937Q43.6625 426.30624 43.475 427.025Q43.2875 427.74374 42.928123 428.18124Q42.584373 428.61874 42.084373 428.82187Q41.6 429.025 40.975 429.025Q40.490623 429.025 40.06875 428.9Q39.646873 428.775 39.31875 428.50937Q38.990623 428.22812 38.75625 427.79062Q38.521873 427.35312 38.396873 426.72812Q38.271873 426.0875 38.271873 425.25937L38.271873 423.94687Q38.271873 422.9 38.459373 422.19687Q38.6625 421.49374 39.00625 421.05624Q39.365623 420.61874 39.85 420.43124Q40.35 420.24374 40.959373 420.24374Q41.459373 420.24374 41.88125 420.36874Q42.303123 420.49374 42.63125 420.75937Q42.959373 421.00937 43.178123 421.44687Q43.4125 421.86874 43.5375 422.49374Q43.6625 423.11874 43.6625 423.94687ZM42.56875 425.43124L42.56875 423.775Q42.56875 423.19687 42.50625 422.75937Q42.44375 422.32187 42.303123 422.00937Q42.178123 421.69687 41.975 421.50937Q41.7875 421.32187 41.5375 421.22812Q41.2875 421.13437 40.959373 421.13437Q40.584373 421.13437 40.271873 421.275Q39.975 421.41562 39.771873 421.72812Q39.56875 422.04062 39.459373 422.55624Q39.365623 423.05624 39.365623 423.775L39.365623 425.43124Q39.365623 426.00937 39.428123 426.44687Q39.50625 426.88437 39.63125 427.2125Q39.771873 427.525 39.959373 427.72812Q40.1625 427.93124 40.4125 428.025Q40.6625 428.11874 40.975 428.11874Q41.38125 428.11874 41.678123 427.97812Q41.975 427.82187 42.178123 427.49374Q42.38125 427.16562 42.475 426.66562Q42.56875 426.15 42.56875 425.43124Z" fill-rule="nonzero"/><path fill="#000000" d="M41.865623 368.81235L41.865623 377.39047L40.7875 377.39047L40.7875 370.17172L38.6 370.9686L38.6 369.98422L41.709373 368.81235L41.865623 368.81235Z" fill-rule="nonzero"/><path fill="#000000" d="M43.896873 324.99033L43.896873 325.88095L38.31875 325.88095L38.31875 325.0997L41.115623 321.99033Q41.63125 321.4122 41.9125 321.02158Q42.19375 320.61533 42.303123 320.30283Q42.428123 319.9747 42.428123 319.64658Q42.428123 319.2247 42.25625 318.88095Q42.084373 318.5372 41.740623 318.33408Q41.4125 318.11533 40.928123 318.11533Q40.365623 318.11533 39.990623 318.3497Q39.615623 318.56845 39.428123 318.95908Q39.240623 319.3497 39.240623 319.8497L38.146873 319.8497Q38.146873 319.13095 38.459373 318.5372Q38.7875 317.94345 39.396873 317.58408Q40.021873 317.2247 40.928123 317.2247Q41.740623 317.2247 42.31875 317.52158Q42.896873 317.80283 43.19375 318.31845Q43.50625 318.81845 43.50625 319.50595Q43.50625 319.88095 43.38125 320.27158Q43.25625 320.64658 43.0375 321.0372Q42.81875 321.4122 42.521873 321.7872Q42.240623 322.14658 41.9125 322.50595L39.615623 324.99033L43.896873 324.99033Z" fill-rule="nonzero"/><path fill="#000000" d="M39.896873 269.57455L40.6625 269.57455Q41.240623 269.57455 41.6 269.38705Q41.975 269.18393 42.1625 268.8558Q42.35 268.52768 42.35 268.1058Q42.35 267.62143 42.178123 267.2933Q42.021873 266.94955 41.69375 266.77768Q41.365623 266.6058 40.865623 266.6058Q40.396873 266.6058 40.053123 266.7933Q39.709373 266.96518 39.50625 267.2933Q39.31875 267.62143 39.31875 268.07455L38.225 268.07455Q38.225 267.4183 38.553123 266.88705Q38.88125 266.3558 39.475 266.0433Q40.06875 265.71518 40.865623 265.71518Q41.63125 265.71518 42.209373 265.99643Q42.7875 266.26205 43.115623 266.80893Q43.44375 267.34018 43.44375 268.13705Q43.44375 268.46518 43.2875 268.82455Q43.13125 269.18393 42.81875 269.51205Q42.50625 269.82455 42.00625 270.02768Q41.521873 270.2308 40.81875 270.2308L39.896873 270.2308L39.896873 269.57455ZM39.896873 270.46518L39.896873 269.80893L40.81875 269.80893Q41.63125 269.80893 42.1625 270.01205Q42.69375 270.19955 43.00625 270.52768Q43.31875 270.84018 43.44375 271.2308Q43.56875 271.6058 43.56875 271.99643Q43.56875 272.59018 43.365623 273.05893Q43.1625 273.51205 42.7875 273.84018Q42.428123 274.15268 41.928123 274.32455Q41.44375 274.49643 40.865623 274.49643Q40.303123 274.49643 39.81875 274.34018Q39.334373 274.1683 38.959373 273.87143Q38.584373 273.57455 38.365623 273.13705Q38.1625 272.68393 38.1625 272.12143L39.240623 272.12143Q39.240623 272.55893 39.428123 272.90268Q39.63125 273.2308 39.990623 273.4183Q40.365623 273.59018 40.865623 273.59018Q41.365623 273.59018 41.725 273.4183Q42.084373 273.24643 42.271873 272.90268Q42.475 272.5433 42.475 272.01205Q42.475 271.4808 42.25625 271.13705Q42.0375 270.7933 41.615623 270.63705Q41.209373 270.46518 40.6625 270.46518L39.896873 270.46518Z" fill-rule="nonzero"/><path fill="#000000" d="M44.06875 219.98691L44.06875 220.87753L37.9125 220.87753L37.9125 220.23691L41.725 214.33066L42.615623 214.33066L41.6625 216.03378L39.146873 219.98691L44.06875 219.98691ZM42.88125 214.33066L42.88125 222.86191L41.803123 222.86191L41.803123 214.33066L42.88125 214.33066Z" fill-rule="nonzero"/><path fill="#000000" d="M39.678123 167.28989L38.81875 167.07114L39.240623 162.82114L43.615623 162.82114L43.615623 163.82114L40.1625 163.82114L39.896873 166.14926Q40.13125 166.00864 40.490623 165.89926Q40.865623 165.77426 41.334373 165.77426Q41.9125 165.77426 42.38125 165.97739Q42.85 166.18051 43.178123 166.55551Q43.521873 166.93051 43.69375 167.46176Q43.865623 167.97739 43.865623 168.63364Q43.865623 169.24301 43.69375 169.75864Q43.5375 170.27426 43.19375 170.66489Q42.865623 171.03989 42.35 171.25864Q41.85 171.47739 41.1625 171.47739Q40.646873 171.47739 40.19375 171.33676Q39.740623 171.18051 39.365623 170.88364Q39.00625 170.58676 38.7875 170.14926Q38.56875 169.71176 38.50625 169.10239L39.5375 169.10239Q39.6 169.58676 39.803123 169.91489Q40.021873 170.24301 40.365623 170.41489Q40.709373 170.57114 41.1625 170.57114Q41.553123 170.57114 41.85 170.44614Q42.146873 170.30551 42.35 170.05551Q42.56875 169.80551 42.678123 169.44614Q42.7875 169.08676 42.7875 168.64926Q42.7875 168.24301 42.6625 167.89926Q42.553123 167.55551 42.334373 167.30551Q42.115623 167.03989 41.803123 166.89926Q41.490623 166.74301 41.06875 166.74301Q40.5375 166.74301 40.25625 166.89926Q39.975 167.03989 39.678123 167.28989Z" fill-rule="nonzero"/><path fill="#000000" d="M42.475 111.29598L42.56875 111.29598L42.56875 112.21786L42.475 112.21786Q41.615623 112.21786 41.021873 112.49911Q40.44375 112.78036 40.1 113.24911Q39.771873 113.70223 39.615623 114.29598Q39.475 114.87411 39.475 115.46786L39.475 116.71786Q39.475 117.28036 39.6 117.71786Q39.740623 118.15536 39.975 118.46786Q40.209373 118.76473 40.50625 118.92098Q40.803123 119.06161 41.115623 119.06161Q41.490623 119.06161 41.7875 118.92098Q42.084373 118.78036 42.2875 118.51473Q42.490623 118.24911 42.584373 117.90536Q42.69375 117.54598 42.69375 117.10848Q42.69375 116.73348 42.6 116.37411Q42.50625 116.01473 42.31875 115.74911Q42.13125 115.46786 41.834373 115.31161Q41.5375 115.13973 41.146873 115.13973Q40.69375 115.13973 40.303123 115.35848Q39.9125 115.57723 39.6625 115.93661Q39.4125 116.29598 39.38125 116.70223L38.803123 116.70223Q38.896873 116.04598 39.115623 115.57723Q39.334373 115.10848 39.678123 114.81161Q40.021873 114.51473 40.428123 114.38973Q40.85 114.24911 41.31875 114.24911Q41.959373 114.24911 42.4125 114.49911Q42.88125 114.73348 43.178123 115.13973Q43.490623 115.53036 43.63125 116.03036Q43.771873 116.53036 43.771873 117.06161Q43.771873 117.65536 43.6 118.18661Q43.428123 118.71786 43.084373 119.12411Q42.75625 119.51473 42.25625 119.74911Q41.771873 119.96786 41.115623 119.96786Q40.428123 119.96786 39.9125 119.68661Q39.396873 119.38973 39.053123 118.92098Q38.725 118.43661 38.553123 117.85848Q38.38125 117.28036 38.38125 116.68661L38.38125 116.17098Q38.38125 115.26473 38.553123 114.40536Q38.740623 113.53036 39.19375 112.82723Q39.646873 112.12411 40.44375 111.71786Q41.240623 111.29598 42.475 111.29598Z" fill-rule="nonzero"/><path fill="#000000" d="M43.81875 59.802086L43.81875 60.41146L40.2875 68.333336L39.146873 68.333336L42.678123 60.69271L38.053123 60.69271L38.053123 59.802086L43.81875 59.802086Z" fill-rule="nonzero"/><path fill="#000000" d="M99.83312 441.88437Q99.83312 441.54062 99.72375 441.275Q99.63 440.99374 99.36437 440.775Q99.09875 440.55624 98.63 440.36874Q98.17687 440.16562 97.47375 439.9625Q96.73937 439.74374 96.14562 439.47812Q95.55187 439.19687 95.11437 438.85312Q94.6925 438.49374 94.47375 438.05624Q94.255 437.60312 94.255 437.00937Q94.255 436.43124 94.48937 435.94687Q94.72375 435.44687 95.17687 435.0875Q95.63 434.7125 96.23937 434.50937Q96.86437 434.30624 97.63 434.30624Q98.755 434.30624 99.53625 434.74374Q100.3175 435.16562 100.72375 435.85312Q101.14562 436.54062 101.14562 437.32187L99.83312 437.32187Q99.83312 436.75937 99.58312 436.32187Q99.34875 435.88437 98.86437 435.63437Q98.38 435.38437 97.63 435.38437Q96.92687 435.38437 96.45812 435.60312Q96.005 435.80624 95.78625 436.18124Q95.5675 436.54062 95.5675 437.00937Q95.5675 437.32187 95.6925 437.5875Q95.83312 437.8375 96.11437 438.05624Q96.39562 438.275 96.83312 438.4625Q97.28625 438.63437 97.89562 438.80624Q98.73937 439.04062 99.34875 439.3375Q99.97375 439.63437 100.36437 440.00937Q100.77062 440.36874 100.95812 440.8375Q101.16125 441.29062 101.16125 441.86874Q101.16125 442.47812 100.91125 442.97812Q100.67687 443.4625 100.20812 443.82187Q99.755 444.16562 99.11437 444.35312Q98.47375 444.54062 97.6925 444.54062Q97.005 444.54062 96.33312 444.35312Q95.67687 444.15 95.13 443.775Q94.58312 443.38437 94.255 442.82187Q93.92687 442.25937 93.92687 441.50937L95.23937 441.50937Q95.23937 442.025 95.4425 442.4Q95.64562 442.75937 95.98937 443.00937Q96.33312 443.24374 96.77062 443.35312Q97.20812 443.4625 97.6925 443.4625Q98.38 443.4625 98.86437 443.275Q99.34875 443.0875 99.58312 442.72812Q99.83312 442.36874 99.83312 441.88437ZM106.20812 440.49374L103.55187 440.49374L103.55187 439.41562L106.20812 439.41562Q106.97375 439.41562 107.45812 439.18124Q107.9425 438.93124 108.16125 438.49374Q108.38 438.05624 108.38 437.49374Q108.38 436.97812 108.16125 436.54062Q107.9425 436.0875 107.45812 435.80624Q106.97375 435.525 106.20812 435.525L103.84875 435.525L103.84875 444.4L102.53625 444.4L102.53625 434.44687L106.20812 434.44687Q107.33312 434.44687 108.11437 434.8375Q108.89562 435.22812 109.28625 435.91562Q109.6925 436.60312 109.6925 437.47812Q109.6925 438.43124 109.28625 439.11874Q108.89562 439.79062 108.11437 440.15Q107.33312 440.49374 106.20812 440.49374ZM111.53625 434.44687L114.83312 434.44687Q115.95812 434.44687 116.72375 434.79062Q117.505 435.13437 117.91125 435.80624Q118.3175 436.4625 118.3175 437.43124Q118.3175 438.11874 118.03625 438.68124Q117.77062 439.24374 117.23937 439.63437Q116.72375 440.025 116.02062 440.22812L115.64562 440.36874L112.55187 440.36874L112.53625 439.29062L114.86437 439.29062Q115.58312 439.29062 116.05187 439.04062Q116.52062 438.79062 116.755 438.36874Q117.005 437.94687 117.005 437.43124Q117.005 436.85312 116.77062 436.43124Q116.55187 435.99374 116.0675 435.75937Q115.58312 435.525 114.83312 435.525L112.84875 435.525L112.84875 444.4L111.53625 444.4L111.53625 434.44687ZM117.34875 444.4L114.92687 439.88437L116.30187 439.88437L118.755 444.32187L118.755 444.4L117.34875 444.4ZM121.95812 434.44687L121.95812 444.4L120.63 444.4L120.63 434.44687L121.95812 434.44687ZM132.1925 434.44687L132.1925 444.4L130.86438 444.4L125.84875 436.72812L125.84875 444.4L124.53625 444.4L124.53625 434.44687L125.84875 434.44687L130.88 442.15L130.88 434.44687L132.1925 434.44687ZM138.20813 434.44687L138.20813 444.4L136.91125 444.4L136.91125 434.44687L138.20813 434.44687ZM141.41125 434.44687L141.41125 435.525L133.72375 435.525L133.72375 434.44687L141.41125 434.44687ZM150.0675 434.43124L150.17688 434.43124L150.17688 435.50937L150.0675 435.50937Q149.05188 435.50937 148.38 435.8375Q147.70813 436.15 147.30188 436.69687Q146.91125 437.24374 146.73938 437.93124Q146.5675 438.60312 146.5675 439.29062L146.5675 440.75937Q146.5675 441.41562 146.72375 441.93124Q146.88 442.43124 147.14563 442.79062Q147.42688 443.13437 147.77063 443.32187Q148.11438 443.49374 148.48938 443.49374Q148.92688 443.49374 149.27063 443.32187Q149.61438 443.15 149.84875 442.85312Q150.08313 442.54062 150.20813 442.13437Q150.33313 441.7125 150.33313 441.2125Q150.33313 440.775 150.22375 440.36874Q150.11438 439.94687 149.88 439.61874Q149.66125 439.29062 149.3175 439.10312Q148.97375 438.91562 148.52063 438.91562Q147.98938 438.91562 147.53625 439.18124Q147.08313 439.43124 146.78625 439.85312Q146.505 440.25937 146.45813 440.74374L145.78625 440.72812Q145.88 439.9625 146.14563 439.43124Q146.41125 438.88437 146.80188 438.54062Q147.1925 438.19687 147.67688 438.04062Q148.17688 437.86874 148.72375 437.86874Q149.47375 437.86874 150.005 438.15Q150.55188 438.43124 150.89563 438.9Q151.23938 439.36874 151.41125 439.9625Q151.58313 440.54062 151.58313 441.15Q151.58313 441.85312 151.38 442.47812Q151.17688 443.0875 150.78625 443.55624Q150.39563 444.00937 149.8175 444.275Q149.255 444.54062 148.48938 444.54062Q147.67688 444.54062 147.0675 444.2125Q146.47375 443.86874 146.08313 443.32187Q145.6925 442.75937 145.48938 442.0875Q145.28625 441.41562 145.28625 440.7125L145.28625 440.11874Q145.28625 439.07187 145.48938 438.05624Q145.70813 437.04062 146.22375 436.22812Q146.755 435.4 147.67688 434.91562Q148.61438 434.43124 150.0675 434.43124Z" fill-rule="nonzero"/><path fill="#000000" d="M244.39313 441.88437Q244.39313 441.54062 244.28375 441.275Q244.19 440.99374 243.92438 440.775Q243.65875 440.55624 243.19 440.36874Q242.73688 440.16562 242.03375 439.9625Q241.29938 439.74374 240.70563 439.47812Q240.11188 439.19687 239.67438 438.85312Q239.2525 438.49374 239.03375 438.05624Q238.815 437.60312 238.815 437.00937Q238.815 436.43124 239.04938 435.94687Q239.28375 435.44687 239.73688 435.0875Q240.19 434.7125 240.79938 434.50937Q241.42438 434.30624 242.19 434.30624Q243.315 434.30624 244.09625 434.74374Q244.8775 435.16562 245.28375 435.85312Q245.70563 436.54062 245.70563 437.32187L244.39313 437.32187Q244.39313 436.75937 244.14313 436.32187Q243.90875 435.88437 243.42438 435.63437Q242.94 435.38437 242.19 435.38437Q241.48688 435.38437 241.01813 435.60312Q240.565 435.80624 240.34625 436.18124Q240.1275 436.54062 240.1275 437.00937Q240.1275 437.32187 240.2525 437.5875Q240.39313 437.8375 240.67438 438.05624Q240.95563 438.275 241.39313 438.4625Q241.84625 438.63437 242.45563 438.80624Q243.29938 439.04062 243.90875 439.3375Q244.53375 439.63437 244.92438 440.00937Q245.33063 440.36874 245.51813 440.8375Q245.72125 441.29062 245.72125 441.86874Q245.72125 442.47812 245.47125 442.97812Q245.23688 443.4625 244.76813 443.82187Q244.315 444.16562 243.67438 444.35312Q243.03375 444.54062 242.2525 444.54062Q241.565 444.54062 240.89313 444.35312Q240.23688 444.15 239.69 443.775Q239.14313 443.38437 238.815 442.82187Q238.48688 442.25937 238.48688 441.50937L239.79938 441.50937Q239.79938 442.025 240.0025 442.4Q240.20563 442.75937 240.54938 443.00937Q240.89313 443.24374 241.33063 443.35312Q241.76813 443.4625 242.2525 443.4625Q242.94 443.4625 243.42438 443.275Q243.90875 443.0875 244.14313 442.72812Q244.39313 442.36874 244.39313 441.88437ZM250.76813 440.49374L248.11188 440.49374L248.11188 439.41562L250.76813 439.41562Q251.53375 439.41562 252.01813 439.18124Q252.5025 438.93124 252.72125 438.49374Q252.94 438.05624 252.94 437.49374Q252.94 436.97812 252.72125 436.54062Q252.5025 436.0875 252.01813 435.80624Q251.53375 435.525 250.76813 435.525L248.40875 435.525L248.40875 444.4L247.09625 444.4L247.09625 434.44687L250.76813 434.44687Q251.89313 434.44687 252.67438 434.8375Q253.45563 435.22812 253.84625 435.91562Q254.2525 436.60312 254.2525 437.47812Q254.2525 438.43124 253.84625 439.11874Q253.45563 439.79062 252.67438 440.15Q251.89313 440.49374 250.76813 440.49374ZM256.09625 434.44687L259.39313 434.44687Q260.51813 434.44687 261.28375 434.79062Q262.065 435.13437 262.47125 435.80624Q262.8775 436.4625 262.8775 437.43124Q262.8775 438.11874 262.59625 438.68124Q262.33063 439.24374 261.79938 439.63437Q261.28375 440.025 260.58063 440.22812L260.20563 440.36874L257.11188 440.36874L257.09625 439.29062L259.42438 439.29062Q260.14313 439.29062 260.61188 439.04062Q261.08063 438.79062 261.315 438.36874Q261.565 437.94687 261.565 437.43124Q261.565 436.85312 261.33063 436.43124Q261.11188 435.99374 260.6275 435.75937Q260.14313 435.525 259.39313 435.525L257.40875 435.525L257.40875 444.4L256.09625 444.4L256.09625 434.44687ZM261.90875 444.4L259.48688 439.88437L260.86188 439.88437L263.315 444.32187L263.315 444.4L261.90875 444.4ZM266.51813 434.44687L266.51813 444.4L265.19 444.4L265.19 434.44687L266.51813 434.44687ZM276.7525 434.44687L276.7525 444.4L275.42438 444.4L270.40875 436.72812L270.40875 444.4L269.09625 444.4L269.09625 434.44687L270.40875 434.44687L275.44 442.15L275.44 434.44687L276.7525 434.44687ZM282.76813 434.44687L282.76813 444.4L281.47125 444.4L281.47125 434.44687L282.76813 434.44687ZM285.97125 434.44687L285.97125 435.525L278.28375 435.525L278.28375 434.44687L285.97125 434.44687ZM296.20563 434.44687L296.20563 435.15L292.08063 444.4L290.7525 444.4L294.86188 435.47812L289.47125 435.47812L289.47125 434.44687L296.20563 434.44687Z" fill-rule="nonzero"/><path fill="#000000" d="M388.95312 441.88437Q388.95312 441.54062 388.84375 441.275Q388.75 440.99374 388.48438 440.775Q388.21875 440.55624 387.75 440.36874Q387.29688 440.16562 386.59375 439.9625Q385.85938 439.74374 385.26562 439.47812Q384.67188 439.19687 384.23438 438.85312Q383.8125 438.49374 383.59375 438.05624Q383.375 437.60312 383.375 437.00937Q383.375 436.43124 383.60938 435.94687Q383.84375 435.44687 384.29688 435.0875Q384.75 434.7125 385.35938 434.50937Q385.98438 434.30624 386.75 434.30624Q387.875 434.30624 388.65625 434.74374Q389.4375 435.16562 389.84375 435.85312Q390.26562 436.54062 390.26562 437.32187L388.95312 437.32187Q388.95312 436.75937 388.70312 436.32187Q388.46875 435.88437 387.98438 435.63437Q387.5 435.38437 386.75 435.38437Q386.04688 435.38437 385.57812 435.60312Q385.125 435.80624 384.90625 436.18124Q384.6875 436.54062 384.6875 437.00937Q384.6875 437.32187 384.8125 437.5875Q384.95312 437.8375 385.23438 438.05624Q385.51562 438.275 385.95312 438.4625Q386.40625 438.63437 387.01562 438.80624Q387.85938 439.04062 388.46875 439.3375Q389.09375 439.63437 389.48438 440.00937Q389.89062 440.36874 390.07812 440.8375Q390.28125 441.29062 390.28125 441.86874Q390.28125 442.47812 390.03125 442.97812Q389.79688 443.4625 389.32812 443.82187Q388.875 444.16562 388.23438 444.35312Q387.59375 444.54062 386.8125 444.54062Q386.125 444.54062 385.45312 444.35312Q384.79688 444.15 384.25 443.775Q383.70312 443.38437 383.375 442.82187Q383.04688 442.25937 383.04688 441.50937L384.35938 441.50937Q384.35938 442.025 384.5625 442.4Q384.76562 442.75937 385.10938 443.00937Q385.45312 443.24374 385.89062 443.35312Q386.32812 443.4625 386.8125 443.4625Q387.5 443.4625 387.98438 443.275Q388.46875 443.0875 388.70312 442.72812Q388.95312 442.36874 388.95312 441.88437ZM395.32812 440.49374L392.67188 440.49374L392.67188 439.41562L395.32812 439.41562Q396.09375 439.41562 396.57812 439.18124Q397.0625 438.93124 397.28125 438.49374Q397.5 438.05624 397.5 437.49374Q397.5 436.97812 397.28125 436.54062Q397.0625 436.0875 396.57812 435.80624Q396.09375 435.525 395.32812 435.525L392.96875 435.525L392.96875 444.4L391.65625 444.4L391.65625 434.44687L395.32812 434.44687Q396.45312 434.44687 397.23438 434.8375Q398.01562 435.22812 398.40625 435.91562Q398.8125 436.60312 398.8125 437.47812Q398.8125 438.43124 398.40625 439.11874Q398.01562 439.79062 397.23438 440.15Q396.45312 440.49374 395.32812 440.49374ZM400.65625 434.44687L403.95312 434.44687Q405.07812 434.44687 405.84375 434.79062Q406.625 435.13437 407.03125 435.80624Q407.4375 436.4625 407.4375 437.43124Q407.4375 438.11874 407.15625 438.68124Q406.89062 439.24374 406.35938 439.63437Q405.84375 440.025 405.14062 440.22812L404.76562 440.36874L401.67188 440.36874L401.65625 439.29062L403.98438 439.29062Q404.70312 439.29062 405.17188 439.04062Q405.64062 438.79062 405.875 438.36874Q406.125 437.94687 406.125 437.43124Q406.125 436.85312 405.89062 436.43124Q405.67188 435.99374 405.1875 435.75937Q404.70312 435.525 403.95312 435.525L401.96875 435.525L401.96875 444.4L400.65625 444.4L400.65625 434.44687ZM406.46875 444.4L404.04688 439.88437L405.42188 439.88437L407.875 444.32187L407.875 444.4L406.46875 444.4ZM411.07812 434.44687L411.07812 444.4L409.75 444.4L409.75 434.44687L411.07812 434.44687ZM421.3125 434.44687L421.3125 444.4L419.98438 444.4L414.96875 436.72812L414.96875 444.4L413.65625 444.4L413.65625 434.44687L414.96875 434.44687L420.0 442.15L420.0 434.44687L421.3125 434.44687ZM427.32812 434.44687L427.32812 444.4L426.03125 444.4L426.03125 434.44687L427.32812 434.44687ZM430.53125 434.44687L430.53125 435.525L422.84375 435.525L422.84375 434.44687L430.53125 434.44687ZM440.60938 441.7125Q440.60938 442.61874 440.1875 443.25937Q439.76562 443.88437 439.04688 444.2125Q438.32812 444.54062 437.4375 444.54062Q436.54688 444.54062 435.82812 444.2125Q435.10938 443.88437 434.6875 443.25937Q434.26562 442.61874 434.26562 441.7125Q434.26562 441.11874 434.5 440.61874Q434.73438 440.11874 435.15625 439.75937Q435.57812 439.38437 436.15625 439.18124Q436.73438 438.97812 437.42188 438.97812Q438.34375 438.97812 439.0625 439.3375Q439.78125 439.68124 440.1875 440.30624Q440.60938 440.91562 440.60938 441.7125ZM439.32812 441.68124Q439.32812 441.11874 439.09375 440.69687Q438.85938 440.275 438.42188 440.04062Q437.98438 439.79062 437.42188 439.79062Q436.84375 439.79062 436.42188 440.04062Q436.0 440.275 435.76562 440.69687Q435.53125 441.11874 435.53125 441.68124Q435.53125 442.25937 435.76562 442.66562Q436.0 443.07187 436.42188 443.29062Q436.84375 443.49374 437.4375 443.49374Q438.03125 443.49374 438.45312 443.29062Q438.875 443.07187 439.09375 442.66562Q439.32812 442.25937 439.32812 441.68124ZM440.375 437.04062Q440.375 437.75937 439.98438 438.35312Q439.60938 438.93124 438.9375 439.25937Q438.28125 439.5875 437.4375 439.5875Q436.57812 439.5875 435.90625 439.25937Q435.25 438.93124 434.875 438.35312Q434.5 437.75937 434.5 437.04062Q434.5 436.16562 434.875 435.55624Q435.25 434.94687 435.90625 434.63437Q436.57812 434.30624 437.4375 434.30624Q438.28125 434.30624 438.9375 434.63437Q439.60938 434.94687 439.98438 435.55624Q440.375 436.16562 440.375 437.04062ZM439.10938 437.05624Q439.10938 436.55624 438.89062 436.18124Q438.6875 435.79062 438.3125 435.57187Q437.9375 435.35312 437.4375 435.35312Q436.9375 435.35312 436.5625 435.55624Q436.1875 435.75937 435.96875 436.15Q435.76562 436.525 435.76562 437.05624Q435.76562 437.57187 435.96875 437.9625Q436.1875 438.3375 436.5625 438.55624Q436.9375 438.75937 437.4375 438.75937Q437.9375 438.75937 438.3125 438.55624Q438.6875 438.3375 438.89062 437.9625Q439.10938 437.57187 439.10938 437.05624Z" fill-rule="nonzero"/><path fill="#000000" d="M533.5131 441.88437Q533.5131 441.54062 533.40375 441.275Q533.31 440.99374 533.0444 440.775Q532.77875 440.55624 532.31 440.36874Q531.8569 440.16562 531.15375 439.9625Q530.4194 439.74374 529.8256 439.47812Q529.2319 439.19687 528.7944 438.85312Q528.3725 438.49374 528.15375 438.05624Q527.935 437.60312 527.935 437.00937Q527.935 436.43124 528.1694 435.94687Q528.40375 435.44687 528.8569 435.0875Q529.31 434.7125 529.9194 434.50937Q530.5444 434.30624 531.31 434.30624Q532.435 434.30624 533.21625 434.74374Q533.9975 435.16562 534.40375 435.85312Q534.8256 436.54062 534.8256 437.32187L533.5131 437.32187Q533.5131 436.75937 533.2631 436.32187Q533.02875 435.88437 532.5444 435.63437Q532.06 435.38437 531.31 435.38437Q530.6069 435.38437 530.1381 435.60312Q529.685 435.80624 529.46625 436.18124Q529.2475 436.54062 529.2475 437.00937Q529.2475 437.32187 529.3725 437.5875Q529.5131 437.8375 529.7944 438.05624Q530.0756 438.275 530.5131 438.4625Q530.96625 438.63437 531.5756 438.80624Q532.4194 439.04062 533.02875 439.3375Q533.65375 439.63437 534.0444 440.00937Q534.4506 440.36874 534.6381 440.8375Q534.84125 441.29062 534.84125 441.86874Q534.84125 442.47812 534.59125 442.97812Q534.3569 443.4625 533.8881 443.82187Q533.435 444.16562 532.7944 444.35312Q532.15375 444.54062 531.3725 444.54062Q530.685 444.54062 530.0131 444.35312Q529.3569 444.15 528.81 443.775Q528.2631 443.38437 527.935 442.82187Q527.6069 442.25937 527.6069 441.50937L528.9194 441.50937Q528.9194 442.025 529.1225 442.4Q529.3256 442.75937 529.6694 443.00937Q530.0131 443.24374 530.4506 443.35312Q530.8881 443.4625 531.3725 443.4625Q532.06 443.4625 532.5444 443.275Q533.02875 443.0875 533.2631 442.72812Q533.5131 442.36874 533.5131 441.88437ZM539.8881 440.49374L537.2319 440.49374L537.2319 439.41562L539.8881 439.41562Q540.65375 439.41562 541.1381 439.18124Q541.6225 438.93124 541.84125 438.49374Q542.06 438.05624 542.06 437.49374Q542.06 436.97812 541.84125 436.54062Q541.6225 436.0875 541.1381 435.80624Q540.65375 435.525 539.8881 435.525L537.52875 435.525L537.52875 444.4L536.21625 444.4L536.21625 434.44687L539.8881 434.44687Q541.0131 434.44687 541.7944 434.8375Q542.5756 435.22812 542.96625 435.91562Q543.3725 436.60312 543.3725 437.47812Q543.3725 438.43124 542.96625 439.11874Q542.5756 439.79062 541.7944 440.15Q541.0131 440.49374 539.8881 440.49374ZM545.21625 434.44687L548.5131 434.44687Q549.6381 434.44687 550.40375 434.79062Q551.185 435.13437 551.59125 435.80624Q551.9975 436.4625 551.9975 437.43124Q551.9975 438.11874 551.71625 438.68124Q551.4506 439.24374 550.9194 439.63437Q550.40375 440.025 549.7006 440.22812L549.3256 440.36874L546.2319 440.36874L546.21625 439.29062L548.5444 439.29062Q549.2631 439.29062 549.7319 439.04062Q550.2006 438.79062 550.435 438.36874Q550.685 437.94687 550.685 437.43124Q550.685 436.85312 550.4506 436.43124Q550.2319 435.99374 549.7475 435.75937Q549.2631 435.525 548.5131 435.525L546.52875 435.525L546.52875 444.4L545.21625 444.4L545.21625 434.44687ZM551.02875 444.4L548.6069 439.88437L549.9819 439.88437L552.435 444.32187L552.435 444.4L551.02875 444.4ZM555.6381 434.44687L555.6381 444.4L554.31 444.4L554.31 434.44687L555.6381 434.44687ZM565.8725 434.44687L565.8725 444.4L564.5444 444.4L559.52875 436.72812L559.52875 444.4L558.21625 444.4L558.21625 434.44687L559.52875 434.44687L564.56 442.15L564.56 434.44687L565.8725 434.44687ZM571.8881 434.44687L571.8881 444.4L570.59125 444.4L570.59125 434.44687L571.8881 434.44687ZM575.09125 434.44687L575.09125 435.525L567.40375 435.525L567.40375 434.44687L575.09125 434.44687ZM580.1381 443.3375L580.27875 443.3375Q581.3725 443.3375 582.0444 443.04062Q582.7319 442.72812 583.1069 442.2125Q583.4819 441.68124 583.6069 441.04062Q583.7475 440.38437 583.7475 439.69687L583.7475 438.16562Q583.7475 437.49374 583.59125 436.9625Q583.435 436.43124 583.1694 436.0875Q582.90375 435.72812 582.56 435.54062Q582.21625 435.35312 581.84125 435.35312Q581.40375 435.35312 581.0444 435.525Q580.7006 435.69687 580.46625 436.025Q580.2319 436.3375 580.1069 436.75937Q579.9819 437.18124 579.9819 437.68124Q579.9819 438.11874 580.09125 438.54062Q580.2006 438.9625 580.4194 439.30624Q580.65375 439.63437 580.9975 439.8375Q581.34125 440.025 581.7944 440.025Q582.21625 440.025 582.59125 439.85312Q582.96625 439.68124 583.2475 439.4Q583.5444 439.10312 583.71625 438.74374Q583.8881 438.36874 583.9194 437.9625L584.5131 437.9625Q584.5131 438.525 584.2944 439.0875Q584.0756 439.63437 583.6694 440.0875Q583.27875 440.525 582.7475 440.80624Q582.21625 441.07187 581.59125 441.07187Q580.8569 441.07187 580.31 440.79062Q579.7631 440.49374 579.4194 440.025Q579.0756 439.54062 578.90375 438.94687Q578.7475 438.35312 578.7475 437.74374Q578.7475 437.04062 578.935 436.41562Q579.1381 435.79062 579.52875 435.32187Q579.9194 434.8375 580.4975 434.57187Q581.0756 434.30624 581.84125 434.30624Q582.685 434.30624 583.27875 434.65Q583.8881 434.99374 584.2631 435.57187Q584.65375 436.13437 584.8256 436.85312Q585.0131 437.57187 585.0131 438.3375L585.0131 438.79062Q585.0131 439.57187 584.90375 440.36874Q584.81 441.16562 584.52875 441.88437Q584.2475 442.60312 583.71625 443.18124Q583.2006 443.74374 582.3569 444.0875Q581.5131 444.41562 580.27875 444.41562L580.1381 444.41562L580.1381 443.3375Z" fill-rule="nonzero"/><path fill="#000000" d="M674.0731 441.88437Q674.0731 441.54062 673.96375 441.275Q673.87 440.99374 673.6044 440.775Q673.33875 440.55624 672.87 440.36874Q672.4169 440.16562 671.71375 439.9625Q670.9794 439.74374 670.3856 439.47812Q669.7919 439.19687 669.3544 438.85312Q668.9325 438.49374 668.71375 438.05624Q668.495 437.60312 668.495 437.00937Q668.495 436.43124 668.7294 435.94687Q668.96375 435.44687 669.4169 435.0875Q669.87 434.7125 670.4794 434.50937Q671.1044 434.30624 671.87 434.30624Q672.995 434.30624 673.77625 434.74374Q674.5575 435.16562 674.96375 435.85312Q675.3856 436.54062 675.3856 437.32187L674.0731 437.32187Q674.0731 436.75937 673.8231 436.32187Q673.58875 435.88437 673.1044 435.63437Q672.62 435.38437 671.87 435.38437Q671.1669 435.38437 670.6981 435.60312Q670.245 435.80624 670.02625 436.18124Q669.8075 436.54062 669.8075 437.00937Q669.8075 437.32187 669.9325 437.5875Q670.0731 437.8375 670.3544 438.05624Q670.6356 438.275 671.0731 438.4625Q671.52625 438.63437 672.1356 438.80624Q672.9794 439.04062 673.58875 439.3375Q674.21375 439.63437 674.6044 440.00937Q675.0106 440.36874 675.1981 440.8375Q675.40125 441.29062 675.40125 441.86874Q675.40125 442.47812 675.15125 442.97812Q674.9169 443.4625 674.4481 443.82187Q673.995 444.16562 673.3544 444.35312Q672.71375 444.54062 671.9325 444.54062Q671.245 444.54062 670.5731 444.35312Q669.9169 444.15 669.37 443.775Q668.8231 443.38437 668.495 442.82187Q668.1669 442.25937 668.1669 441.50937L669.4794 441.50937Q669.4794 442.025 669.6825 442.4Q669.8856 442.75937 670.2294 443.00937Q670.5731 443.24374 671.0106 443.35312Q671.4481 443.4625 671.9325 443.4625Q672.62 443.4625 673.1044 443.275Q673.58875 443.0875 673.8231 442.72812Q674.0731 442.36874 674.0731 441.88437ZM680.4481 440.49374L677.7919 440.49374L677.7919 439.41562L680.4481 439.41562Q681.21375 439.41562 681.6981 439.18124Q682.1825 438.93124 682.40125 438.49374Q682.62 438.05624 682.62 437.49374Q682.62 436.97812 682.40125 436.54062Q682.1825 436.0875 681.6981 435.80624Q681.21375 435.525 680.4481 435.525L678.08875 435.525L678.08875 444.4L676.77625 444.4L676.77625 434.44687L680.4481 434.44687Q681.5731 434.44687 682.3544 434.8375Q683.1356 435.22812 683.52625 435.91562Q683.9325 436.60312 683.9325 437.47812Q683.9325 438.43124 683.52625 439.11874Q683.1356 439.79062 682.3544 440.15Q681.5731 440.49374 680.4481 440.49374ZM685.77625 434.44687L689.0731 434.44687Q690.1981 434.44687 690.96375 434.79062Q691.745 435.13437 692.15125 435.80624Q692.5575 436.4625 692.5575 437.43124Q692.5575 438.11874 692.27625 438.68124Q692.0106 439.24374 691.4794 439.63437Q690.96375 440.025 690.2606 440.22812L689.8856 440.36874L686.7919 440.36874L686.77625 439.29062L689.1044 439.29062Q689.8231 439.29062 690.2919 439.04062Q690.7606 438.79062 690.995 438.36874Q691.245 437.94687 691.245 437.43124Q691.245 436.85312 691.0106 436.43124Q690.7919 435.99374 690.3075 435.75937Q689.8231 435.525 689.0731 435.525L687.08875 435.525L687.08875 444.4L685.77625 444.4L685.77625 434.44687ZM691.58875 444.4L689.1669 439.88437L690.5419 439.88437L692.995 444.32187L692.995 444.4L691.58875 444.4ZM696.1981 434.44687L696.1981 444.4L694.87 444.4L694.87 434.44687L696.1981 434.44687ZM706.4325 434.44687L706.4325 444.4L705.1044 444.4L700.08875 436.72812L700.08875 444.4L698.77625 444.4L698.77625 434.44687L700.08875 434.44687L705.12 442.15L705.12 434.44687L706.4325 434.44687ZM712.4481 434.44687L712.4481 444.4L711.15125 444.4L711.15125 434.44687L712.4481 434.44687ZM715.65125 434.44687L715.65125 435.525L707.96375 435.525L707.96375 434.44687L715.65125 434.44687ZM723.6044 434.38437L723.6044 444.4L722.33875 444.4L722.33875 435.97812L719.7919 436.9L719.7919 435.75937L723.40125 434.38437L723.6044 434.38437ZM733.6981 438.63437L733.6981 440.15Q733.6981 441.36874 733.4794 442.2125Q733.2606 443.05624 732.83875 443.57187Q732.4325 444.07187 731.8544 444.30624Q731.27625 444.54062 730.5575 444.54062Q729.9794 444.54062 729.495 444.4Q729.0106 444.24374 728.62 443.93124Q728.245 443.61874 727.96375 443.10312Q727.6981 442.5875 727.5419 441.85312Q727.40125 441.11874 727.40125 440.15L727.40125 438.63437Q727.40125 437.4 727.62 436.5875Q727.8544 435.75937 728.2606 435.25937Q728.6669 434.74374 729.245 434.525Q729.8231 434.30624 730.5419 434.30624Q731.12 434.30624 731.6044 434.44687Q732.1044 434.5875 732.4794 434.9Q732.87 435.19687 733.1356 435.69687Q733.40125 436.19687 733.5419 436.93124Q733.6981 437.65 733.6981 438.63437ZM732.4169 440.35312L732.4169 438.41562Q732.4169 437.74374 732.33875 437.24374Q732.2606 436.72812 732.1044 436.36874Q731.96375 436.00937 731.7294 435.79062Q731.5106 435.55624 731.21375 435.44687Q730.9169 435.3375 730.5419 435.3375Q730.08875 435.3375 729.745 435.50937Q729.40125 435.68124 729.15125 436.04062Q728.9169 436.4 728.7919 436.99374Q728.6825 437.57187 728.6825 438.41562L728.6825 440.35312Q728.6825 441.025 728.7606 441.54062Q728.83875 442.04062 728.995 442.41562Q729.15125 442.79062 729.37 443.04062Q729.6044 443.275 729.90125 443.38437Q730.1981 443.49374 730.5575 443.49374Q731.02625 443.49374 731.37 443.32187Q731.71375 443.13437 731.9481 442.75937Q732.1981 442.38437 732.3075 441.79062Q732.4169 441.18124 732.4169 440.35312Z" fill-rule="nonzero"/><path fill="#9900ff" d="M230.5 32.1C230.5 35.413708 227.8137 38.1 224.5 38.1C221.1863 38.1 218.5 35.413708 218.5 32.1C218.5 28.786291 221.1863 26.1 224.5 26.1C227.8137 26.1 230.5 28.786291 230.5 32.1Z" fill-rule="nonzero"/><path fill="#1a1a1a" d="M245.15625 33.303123L247.20312 33.303123Q247.14062 34.303123 246.64062 35.084373Q246.15625 35.865623 245.28125 36.303123Q244.42188 36.740623 243.20312 36.740623Q242.23438 36.740623 241.46875 36.4125Q240.71875 36.06875 240.1875 35.459373Q239.65625 34.834373 239.375 33.959373Q239.09375 33.06875 239.09375 31.974998L239.09375 31.287498Q239.09375 30.193748 239.375 29.303123Q239.67188 28.412498 240.20312 27.803123Q240.75 27.178123 241.51562 26.849998Q242.28125 26.506248 243.20312 26.506248Q244.45312 26.506248 245.3125 26.959373Q246.17188 27.412498 246.64062 28.209373Q247.125 28.990623 247.21875 30.006248L245.17188 30.006248Q245.125 29.396873 244.92188 28.974998Q244.71875 28.553123 244.29688 28.349998Q243.89062 28.131248 243.20312 28.131248Q242.70312 28.131248 242.3125 28.318748Q241.9375 28.506248 241.67188 28.896873Q241.40625 29.287498 241.28125 29.881248Q241.15625 30.474998 241.15625 31.271873L241.15625 31.974998Q241.15625 32.740623 241.26562 33.334373Q241.39062 33.9125 241.625 34.31875Q241.875 34.709373 242.26562 34.9125Q242.65625 35.115623 243.20312 35.115623Q243.84375 35.115623 244.25 34.9125Q244.67188 34.709373 244.89062 34.303123Q245.125 33.896873 245.15625 33.303123ZM253.57812 33.990623Q253.57812 33.725 253.48438 33.521873Q253.40625 33.303123 253.1875 33.115623Q252.98438 32.928123 252.59375 32.75625Q252.21875 32.584373 251.60938 32.38125Q250.9375 32.1625 250.32812 31.896873Q249.73438 31.615623 249.26562 31.256248Q248.8125 30.896873 248.54688 30.412498Q248.28125 29.928123 248.28125 29.271873Q248.28125 28.662498 248.54688 28.146873Q248.82812 27.631248 249.3125 27.271873Q249.8125 26.912498 250.48438 26.709373Q251.15625 26.506248 251.96875 26.506248Q253.0625 26.506248 253.875 26.912498Q254.70312 27.303123 255.15625 27.990623Q255.60938 28.678123 255.60938 29.568748L253.57812 29.568748Q253.57812 29.131248 253.39062 28.803123Q253.21875 28.474998 252.84375 28.287498Q252.48438 28.084373 251.9375 28.084373Q251.39062 28.084373 251.03125 28.256248Q250.6875 28.412498 250.5 28.678123Q250.32812 28.943748 250.32812 29.287498Q250.32812 29.537498 250.45312 29.740623Q250.57812 29.943748 250.82812 30.131248Q251.09375 30.303123 251.45312 30.459373Q251.82812 30.615623 252.3125 30.771873Q253.125 31.021873 253.73438 31.334373Q254.35938 31.631248 254.78125 32.021873Q255.20312 32.396873 255.40625 32.88125Q255.625 33.365623 255.625 33.975Q255.625 34.63125 255.35938 35.146873Q255.10938 35.6625 254.625 36.021873Q254.15625 36.365623 253.48438 36.553123Q252.82812 36.740623 252.01562 36.740623Q251.28125 36.740623 250.5625 36.553123Q249.84375 36.35 249.25 35.959373Q248.67188 35.553123 248.3125 34.94375Q247.96875 34.31875 247.96875 33.475L250.03125 33.475Q250.03125 33.94375 250.17188 34.271873Q250.3125 34.584373 250.57812 34.7875Q250.84375 34.990623 251.20312 35.084373Q251.57812 35.178123 252.01562 35.178123Q252.54688 35.178123 252.89062 35.021873Q253.23438 34.865623 253.40625 34.6Q253.57812 34.334373 253.57812 33.990623Z" fill-rule="nonzero"/><path stroke="#ff0000" stroke-width="4.0" stroke-linecap="butt" stroke-dasharray="13.0,9.0" d="M272.5 32.1L307.5 32.1" fill-rule="nonzero"/><path fill="#1a1a1a" d="M319.98438 34.521873L322.32812 26.646873L324.60938 26.646873L321.14062 36.6L319.64062 36.6L319.98438 34.521873ZM317.8125 26.646873L320.15625 34.521873L320.51562 36.6L319.0 36.6L315.54688 26.646873L317.8125 26.646873ZM329.26562 34.928123L329.26562 31.631248Q329.26562 31.287498 329.14062 31.037498Q329.03125 30.771873 328.78125 30.631248Q328.54688 30.474998 328.15625 30.474998Q327.82812 30.474998 327.57812 30.599998Q327.34375 30.709373 327.21875 30.928123Q327.09375 31.131248 327.09375 31.396873L325.125 31.396873Q325.125 30.928123 325.34375 30.506248Q325.5625 30.084373 325.96875 29.756248Q326.39062 29.428123 326.96875 29.256248Q327.54688 29.068748 328.26562 29.068748Q329.125 29.068748 329.79688 29.365623Q330.46875 29.646873 330.84375 30.224998Q331.23438 30.787498 331.23438 31.646873L331.23438 34.81875Q331.23438 35.428123 331.3125 35.81875Q331.39062 36.19375 331.53125 36.490623L331.53125 36.6L329.54688 36.6Q329.40625 36.303123 329.32812 35.85Q329.26562 35.396873 329.26562 34.928123ZM329.51562 32.1L329.53125 33.209373L328.4375 33.209373Q328.04688 33.209373 327.75 33.303123Q327.46875 33.38125 327.28125 33.553123Q327.09375 33.709373 327.0 33.928123Q326.92188 34.13125 326.92188 34.38125Q326.92188 34.63125 327.03125 34.834373Q327.15625 35.0375 327.375 35.1625Q327.59375 35.271873 327.89062 35.271873Q328.32812 35.271873 328.65625 35.1Q328.98438 34.9125 329.17188 34.6625Q329.35938 34.396873 329.35938 34.1625L329.875 34.990623Q329.76562 35.271873 329.57812 35.584373Q329.39062 35.88125 329.10938 36.146873Q328.82812 36.396873 328.42188 36.56875Q328.01562 36.740623 327.45312 36.740623Q326.75 36.740623 326.17188 36.459373Q325.60938 36.1625 325.28125 35.6625Q324.95312 35.1625 324.95312 34.521873Q324.95312 33.94375 325.17188 33.490623Q325.39062 33.0375 325.8125 32.725Q326.25 32.4125 326.89062 32.25625Q327.53125 32.1 328.375 32.1L329.51562 32.1ZM335.34375 26.099998L335.34375 36.6L333.375 36.6L333.375 26.099998L335.34375 26.099998ZM336.95312 32.975L336.95312 32.834373Q336.95312 32.021873 337.1875 31.334373Q337.42188 30.646873 337.85938 30.146873Q338.3125 29.631248 338.95312 29.349998Q339.60938 29.068748 340.4375 29.068748Q341.28125 29.068748 341.9375 29.349998Q342.59375 29.631248 343.04688 30.146873Q343.5 30.646873 343.71875 31.334373Q343.95312 32.021873 343.95312 32.834373L343.95312 32.975Q343.95312 33.7875 343.71875 34.475Q343.5 35.1625 343.04688 35.678123Q342.59375 36.178123 341.9375 36.459373Q341.29688 36.740623 340.45312 36.740623Q339.625 36.740623 338.96875 36.459373Q338.3125 36.178123 337.85938 35.678123Q337.42188 35.1625 337.1875 34.475Q336.95312 33.7875 336.95312 32.975ZM338.92188 32.834373L338.92188 32.975Q338.92188 33.44375 339.0 33.85Q339.07812 34.240623 339.26562 34.553123Q339.45312 34.85 339.73438 35.021873Q340.03125 35.19375 340.45312 35.19375Q340.875 35.19375 341.15625 35.021873Q341.45312 34.85 341.625 34.553123Q341.8125 34.240623 341.89062 33.85Q341.98438 33.44375 341.98438 32.975L341.98438 32.834373Q341.98438 32.38125 341.89062 31.990623Q341.8125 31.584373 341.625 31.271873Q341.45312 30.959373 341.15625 30.787498Q340.85938 30.599998 340.4375 30.599998Q340.03125 30.599998 339.73438 30.787498Q339.45312 30.959373 339.26562 31.271873Q339.07812 31.584373 339.0 31.990623Q338.92188 32.38125 338.92188 32.834373ZM347.23438 30.818748L347.23438 36.6L345.26562 36.6L345.26562 29.209373L347.125 29.209373L347.23438 30.818748ZM349.46875 29.162498L349.42188 30.974998Q349.28125 30.959373 349.07812 30.943748Q348.875 30.928123 348.71875 30.928123Q348.29688 30.928123 347.98438 31.037498Q347.6875 31.131248 347.48438 31.334373Q347.29688 31.537498 347.1875 31.834373Q347.09375 32.13125 347.07812 32.50625L346.6875 32.38125Q346.6875 31.678123 346.82812 31.068748Q346.96875 30.459373 347.23438 30.006248Q347.51562 29.553123 347.92188 29.318748Q348.32812 29.068748 348.84375 29.068748Q349.01562 29.068748 349.1875 29.099998Q349.35938 29.115623 349.46875 29.162498ZM353.67188 36.740623Q352.8125 36.740623 352.125 36.459373Q351.4375 36.178123 350.95312 35.69375Q350.48438 35.19375 350.23438 34.553123Q349.98438 33.896873 349.98438 33.146873L349.98438 32.88125Q349.98438 32.0375 350.21875 31.349998Q350.46875 30.646873 350.90625 30.131248Q351.35938 29.615623 352.0 29.349998Q352.64062 29.068748 353.45312 29.068748Q354.23438 29.068748 354.84375 29.334373Q355.45312 29.584373 355.85938 30.068748Q356.28125 30.537498 356.48438 31.209373Q356.70312 31.881248 356.70312 32.69375L356.70312 33.50625L350.82812 33.50625L350.82812 32.19375L354.76562 32.19375L354.76562 32.053123Q354.76562 31.631248 354.625 31.318748Q354.48438 30.990623 354.1875 30.803123Q353.89062 30.599998 353.4375 30.599998Q353.04688 30.599998 352.76562 30.771873Q352.48438 30.943748 352.29688 31.256248Q352.125 31.568748 352.04688 31.974998Q351.96875 32.38125 351.96875 32.88125L351.96875 33.146873Q351.96875 33.6 352.09375 33.975Q352.21875 34.35 352.45312 34.63125Q352.6875 34.896873 353.01562 35.053123Q353.35938 35.19375 353.79688 35.19375Q354.32812 35.19375 354.78125 34.990623Q355.25 34.7875 355.57812 34.35L356.54688 35.396873Q356.3125 35.725 355.90625 36.0375Q355.51562 36.35 354.95312 36.553123Q354.39062 36.740623 353.67188 36.740623ZM365.26562 34.928123L365.26562 31.631248Q365.26562 31.287498 365.14062 31.037498Q365.03125 30.771873 364.78125 30.631248Q364.54688 30.474998 364.15625 30.474998Q363.82812 30.474998 363.57812 30.599998Q363.34375 30.709373 363.21875 30.928123Q363.09375 31.131248 363.09375 31.396873L361.125 31.396873Q361.125 30.928123 361.34375 30.506248Q361.5625 30.084373 361.96875 29.756248Q362.39062 29.428123 362.96875 29.256248Q363.54688 29.068748 364.26562 29.068748Q365.125 29.068748 365.79688 29.365623Q366.46875 29.646873 366.84375 30.224998Q367.23438 30.787498 367.23438 31.646873L367.23438 34.81875Q367.23438 35.428123 367.3125 35.81875Q367.39062 36.19375 367.53125 36.490623L367.53125 36.6L365.54688 36.6Q365.40625 36.303123 365.32812 35.85Q365.26562 35.396873 365.26562 34.928123ZM365.51562 32.1L365.53125 33.209373L364.4375 33.209373Q364.04688 33.209373 363.75 33.303123Q363.46875 33.38125 363.28125 33.553123Q363.09375 33.709373 363.0 33.928123Q362.92188 34.13125 362.92188 34.38125Q362.92188 34.63125 363.03125 34.834373Q363.15625 35.0375 363.375 35.1625Q363.59375 35.271873 363.89062 35.271873Q364.32812 35.271873 364.65625 35.1Q364.98438 34.9125 365.17188 34.6625Q365.35938 34.396873 365.35938 34.1625L365.875 34.990623Q365.76562 35.271873 365.57812 35.584373Q365.39062 35.88125 365.10938 36.146873Q364.82812 36.396873 364.42188 36.56875Q364.01562 36.740623 363.45312 36.740623Q362.75 36.740623 362.17188 36.459373Q361.60938 36.1625 361.28125 35.6625Q360.95312 35.1625 360.95312 34.521873Q360.95312 33.94375 361.17188 33.490623Q361.39062 33.0375 361.8125 32.725Q362.25 32.4125 362.89062 32.25625Q363.53125 32.1 364.375 32.1L365.51562 32.1ZM372.32812 35.19375Q372.6875 35.19375 372.96875 35.053123Q373.25 34.9125 373.40625 34.6625Q373.5625 34.4125 373.57812 34.053123L375.42188 34.053123Q375.42188 34.834373 375.0 35.44375Q374.59375 36.053123 373.90625 36.396873Q373.21875 36.740623 372.35938 36.740623Q371.5 36.740623 370.85938 36.459373Q370.21875 36.1625 369.79688 35.6625Q369.375 35.146873 369.15625 34.475Q368.95312 33.7875 368.95312 33.00625L368.95312 32.803123Q368.95312 32.021873 369.15625 31.349998Q369.375 30.662498 369.79688 30.162498Q370.21875 29.646873 370.85938 29.365623Q371.5 29.068748 372.34375 29.068748Q373.26562 29.068748 373.9375 29.412498Q374.625 29.756248 375.01562 30.412498Q375.42188 31.053123 375.42188 31.943748L373.57812 31.943748Q373.5625 31.568748 373.40625 31.271873Q373.26562 30.959373 372.98438 30.787498Q372.71875 30.599998 372.3125 30.599998Q371.89062 30.599998 371.60938 30.787498Q371.34375 30.959373 371.1875 31.271873Q371.03125 31.584373 370.96875 31.990623Q370.92188 32.38125 370.92188 32.803123L370.92188 33.00625Q370.92188 33.428123 370.96875 33.834373Q371.03125 34.225 371.1875 34.5375Q371.34375 34.85 371.60938 35.021873Q371.89062 35.19375 372.32812 35.19375ZM379.32812 35.19375Q379.6875 35.19375 379.96875 35.053123Q380.25 34.9125 380.40625 34.6625Q380.5625 34.4125 380.57812 34.053123L382.42188 34.053123Q382.42188 34.834373 382.0 35.44375Q381.59375 36.053123 380.90625 36.396873Q380.21875 36.740623 379.35938 36.740623Q378.5 36.740623 377.85938 36.459373Q377.21875 36.1625 376.79688 35.6625Q376.375 35.146873 376.15625 34.475Q375.95312 33.7875 375.95312 33.00625L375.95312 32.803123Q375.95312 32.021873 376.15625 31.349998Q376.375 30.662498 376.79688 30.162498Q377.21875 29.646873 377.85938 29.365623Q378.5 29.068748 379.34375 29.068748Q380.26562 29.068748 380.9375 29.412498Q381.625 29.756248 382.01562 30.412498Q382.42188 31.053123 382.42188 31.943748L380.57812 31.943748Q380.5625 31.568748 380.40625 31.271873Q380.26562 30.959373 379.98438 30.787498Q379.71875 30.599998 379.3125 30.599998Q378.89062 30.599998 378.60938 30.787498Q378.34375 30.959373 378.1875 31.271873Q378.03125 31.584373 377.96875 31.990623Q377.92188 32.38125 377.92188 32.803123L377.92188 33.00625Q377.92188 33.428123 377.96875 33.834373Q378.03125 34.225 378.1875 34.5375Q378.34375 34.85 378.60938 35.021873Q378.89062 35.19375 379.32812 35.19375ZM386.67188 36.740623Q385.8125 36.740623 385.125 36.459373Q384.4375 36.178123 383.95312 35.69375Q383.48438 35.19375 383.23438 34.553123Q382.98438 33.896873 382.98438 33.146873L382.98438 32.88125Q382.98438 32.0375 383.21875 31.349998Q383.46875 30.646873 383.90625 30.131248Q384.35938 29.615623 385.0 29.349998Q385.64062 29.068748 386.45312 29.068748Q387.23438 29.068748 387.84375 29.334373Q388.45312 29.584373 388.85938 30.068748Q389.28125 30.537498 389.48438 31.209373Q389.70312 31.881248 389.70312 32.69375L389.70312 33.50625L383.82812 33.50625L383.82812 32.19375L387.76562 32.19375L387.76562 32.053123Q387.76562 31.631248 387.625 31.318748Q387.48438 30.990623 387.1875 30.803123Q386.89062 30.599998 386.4375 30.599998Q386.04688 30.599998 385.76562 30.771873Q385.48438 30.943748 385.29688 31.256248Q385.125 31.568748 385.04688 31.974998Q384.96875 32.38125 384.96875 32.88125L384.96875 33.146873Q384.96875 33.6 385.09375 33.975Q385.21875 34.35 385.45312 34.63125Q385.6875 34.896873 386.01562 35.053123Q386.35938 35.19375 386.79688 35.19375Q387.32812 35.19375 387.78125 34.990623Q388.25 34.7875 388.57812 34.35L389.54688 35.396873Q389.3125 35.725 388.90625 36.0375Q388.51562 36.35 387.95312 36.553123Q387.39062 36.740623 386.67188 36.740623ZM394.89062 29.209373L394.89062 30.599998L390.57812 30.599998L390.57812 29.209373L394.89062 29.209373ZM391.65625 27.381248L393.625 27.381248L393.625 34.365623Q393.625 34.69375 393.70312 34.865623Q393.78125 35.0375 393.95312 35.1Q394.125 35.1625 394.39062 35.1625Q394.57812 35.1625 394.71875 35.146873Q394.875 35.13125 394.96875 35.115623L394.98438 36.553123Q394.71875 36.646873 394.42188 36.69375Q394.14062 36.740623 393.78125 36.740623Q393.125 36.740623 392.64062 36.521873Q392.17188 36.303123 391.90625 35.834373Q391.65625 35.35 391.65625 34.56875L391.65625 27.381248ZM399.89062 29.209373L399.89062 30.599998L395.57812 30.599998L395.57812 29.209373L399.89062 29.209373ZM396.65625 27.381248L398.625 27.381248L398.625 34.365623Q398.625 34.69375 398.70312 34.865623Q398.78125 35.0375 398.95312 35.1Q399.125 35.1625 399.39062 35.1625Q399.57812 35.1625 399.71875 35.146873Q399.875 35.13125 399.96875 35.115623L399.98438 36.553123Q399.71875 36.646873 399.42188 36.69375Q399.14062 36.740623 398.78125 36.740623Q398.125 36.740623 397.64062 36.521873Q397.17188 36.303123 396.90625 35.834373Q396.65625 35.35 396.65625 34.56875L396.65625 27.381248ZM405.26562 34.928123L405.26562 31.631248Q405.26562 31.287498 405.14062 31.037498Q405.03125 30.771873 404.78125 30.631248Q404.54688 30.474998 404.15625 30.474998Q403.82812 30.474998 403.57812 30.599998Q403.34375 30.709373 403.21875 30.928123Q403.09375 31.131248 403.09375 31.396873L401.125 31.396873Q401.125 30.928123 401.34375 30.506248Q401.5625 30.084373 401.96875 29.756248Q402.39062 29.428123 402.96875 29.256248Q403.54688 29.068748 404.26562 29.068748Q405.125 29.068748 405.79688 29.365623Q406.46875 29.646873 406.84375 30.224998Q407.23438 30.787498 407.23438 31.646873L407.23438 34.81875Q407.23438 35.428123 407.3125 35.81875Q407.39062 36.19375 407.53125 36.490623L407.53125 36.6L405.54688 36.6Q405.40625 36.303123 405.32812 35.85Q405.26562 35.396873 405.26562 34.928123ZM405.51562 32.1L405.53125 33.209373L404.4375 33.209373Q404.04688 33.209373 403.75 33.303123Q403.46875 33.38125 403.28125 33.553123Q403.09375 33.709373 403.0 33.928123Q402.92188 34.13125 402.92188 34.38125Q402.92188 34.63125 403.03125 34.834373Q403.15625 35.0375 403.375 35.1625Q403.59375 35.271873 403.89062 35.271873Q404.32812 35.271873 404.65625 35.1Q404.98438 34.9125 405.17188 34.6625Q405.35938 34.396873 405.35938 34.1625L405.875 34.990623Q405.76562 35.271873 405.57812 35.584373Q405.39062 35.88125 405.10938 36.146873Q404.82812 36.396873 404.42188 36.56875Q404.01562 36.740623 403.45312 36.740623Q402.75 36.740623 402.17188 36.459373Q401.60938 36.1625 401.28125 35.6625Q400.95312 35.1625 400.95312 34.521873Q400.95312 33.94375 401.17188 33.490623Q401.39062 33.0375 401.8125 32.725Q402.25 32.4125 402.89062 32.25625Q403.53125 32.1 404.375 32.1L405.51562 32.1ZM409.26562 26.099998L411.23438 26.099998L411.23438 34.896873L411.03125 36.6L409.26562 36.6L409.26562 26.099998ZM415.92188 32.81875L415.92188 32.975Q415.92188 33.803123 415.73438 34.490623Q415.5625 35.178123 415.20312 35.678123Q414.84375 36.178123 414.29688 36.459373Q413.76562 36.740623 413.04688 36.740623Q412.375 36.740623 411.875 36.475Q411.375 36.19375 411.03125 35.69375Q410.70312 35.19375 410.5 34.521873Q410.29688 33.85 410.20312 33.053123L410.20312 32.740623Q410.29688 31.943748 410.5 31.287498Q410.70312 30.615623 411.03125 30.115623Q411.375 29.615623 411.85938 29.349998Q412.35938 29.068748 413.03125 29.068748Q413.76562 29.068748 414.29688 29.349998Q414.84375 29.615623 415.20312 30.131248Q415.5625 30.631248 415.73438 31.318748Q415.92188 32.00625 415.92188 32.81875ZM413.95312 32.975L413.95312 32.81875Q413.95312 32.38125 413.875 31.974998Q413.8125 31.568748 413.65625 31.271873Q413.5 30.959373 413.23438 30.787498Q412.96875 30.615623 412.54688 30.615623Q412.14062 30.615623 411.85938 30.756248Q411.57812 30.881248 411.39062 31.131248Q411.21875 31.381248 411.125 31.724998Q411.03125 32.053123 411.01562 32.459373L411.01562 33.35Q411.03125 33.896873 411.1875 34.31875Q411.35938 34.725 411.6875 34.959373Q412.01562 35.19375 412.54688 35.19375Q412.96875 35.19375 413.23438 35.0375Q413.51562 34.865623 413.67188 34.56875Q413.82812 34.25625 413.89062 33.85Q413.95312 33.44375 413.95312 32.975ZM419.34375 29.209373L419.34375 36.6L417.375 36.6L417.375 29.209373L419.34375 29.209373ZM417.25 27.271873Q417.25 26.849998 417.54688 26.568748Q417.84375 26.287498 418.35938 26.287498Q418.85938 26.287498 419.15625 26.568748Q419.45312 26.849998 419.45312 27.271873Q419.45312 27.709373 419.15625 27.990623Q418.85938 28.271873 418.35938 28.271873Q417.84375 28.271873 417.54688 27.990623Q417.25 27.709373 417.25 27.271873ZM423.34375 26.099998L423.34375 36.6L421.375 36.6L421.375 26.099998L423.34375 26.099998ZM428.67188 36.740623Q427.8125 36.740623 427.125 36.459373Q426.4375 36.178123 425.95312 35.69375Q425.48438 35.19375 425.23438 34.553123Q424.98438 33.896873 424.98438 33.146873L424.98438 32.88125Q424.98438 32.0375 425.21875 31.349998Q425.46875 30.646873 425.90625 30.131248Q426.35938 29.615623 427.0 29.349998Q427.64062 29.068748 428.45312 29.068748Q429.23438 29.068748 429.84375 29.334373Q430.45312 29.584373 430.85938 30.068748Q431.28125 30.537498 431.48438 31.209373Q431.70312 31.881248 431.70312 32.69375L431.70312 33.50625L425.82812 33.50625L425.82812 32.19375L429.76562 32.19375L429.76562 32.053123Q429.76562 31.631248 429.625 31.318748Q429.48438 30.990623 429.1875 30.803123Q428.89062 30.599998 428.4375 30.599998Q428.04688 30.599998 427.76562 30.771873Q427.48438 30.943748 427.29688 31.256248Q427.125 31.568748 427.04688 31.974998Q426.96875 32.38125 426.96875 32.88125L426.96875 33.146873Q426.96875 33.6 427.09375 33.975Q427.21875 34.35 427.45312 34.63125Q427.6875 34.896873 428.01562 35.053123Q428.35938 35.19375 428.79688 35.19375Q429.32812 35.19375 429.78125 34.990623Q430.25 34.7875 430.57812 34.35L431.54688 35.396873Q431.3125 35.725 430.90625 36.0375Q430.51562 36.35 429.95312 36.553123Q429.39062 36.740623 428.67188 36.740623Z" fill-rule="nonzero"/><path stroke="#00b050" stroke-width="4.0" stroke-linecap="butt" stroke-dasharray="13.0,9.0" d="M448.5 32.1L483.5 32.1" fill-rule="nonzero"/><path fill="#1a1a1a" d="M495.98438 34.521873L498.32812 26.646873L500.60938 26.646873L497.14062 36.6L495.64062 36.6L495.98438 34.521873ZM493.8125 26.646873L496.15625 34.521873L496.51562 36.6L495.0 36.6L491.54688 26.646873L493.8125 26.646873ZM505.26562 34.928123L505.26562 31.631248Q505.26562 31.287498 505.14062 31.037498Q505.03125 30.771873 504.78125 30.631248Q504.54688 30.474998 504.15625 30.474998Q503.82812 30.474998 503.57812 30.599998Q503.34375 30.709373 503.21875 30.928123Q503.09375 31.131248 503.09375 31.396873L501.125 31.396873Q501.125 30.928123 501.34375 30.506248Q501.5625 30.084373 501.96875 29.756248Q502.39062 29.428123 502.96875 29.256248Q503.54688 29.068748 504.26562 29.068748Q505.125 29.068748 505.79688 29.365623Q506.46875 29.646873 506.84375 30.224998Q507.23438 30.787498 507.23438 31.646873L507.23438 34.81875Q507.23438 35.428123 507.3125 35.81875Q507.39062 36.19375 507.53125 36.490623L507.53125 36.6L505.54688 36.6Q505.40625 36.303123 505.32812 35.85Q505.26562 35.396873 505.26562 34.928123ZM505.51562 32.1L505.53125 33.209373L504.4375 33.209373Q504.04688 33.209373 503.75 33.303123Q503.46875 33.38125 503.28125 33.553123Q503.09375 33.709373 503.0 33.928123Q502.92188 34.13125 502.92188 34.38125Q502.92188 34.63125 503.03125 34.834373Q503.15625 35.0375 503.375 35.1625Q503.59375 35.271873 503.89062 35.271873Q504.32812 35.271873 504.65625 35.1Q504.98438 34.9125 505.17188 34.6625Q505.35938 34.396873 505.35938 34.1625L505.875 34.990623Q505.76562 35.271873 505.57812 35.584373Q505.39062 35.88125 505.10938 36.146873Q504.82812 36.396873 504.42188 36.56875Q504.01562 36.740623 503.45312 36.740623Q502.75 36.740623 502.17188 36.459373Q501.60938 36.1625 501.28125 35.6625Q500.95312 35.1625 500.95312 34.521873Q500.95312 33.94375 501.17188 33.490623Q501.39062 33.0375 501.8125 32.725Q502.25 32.4125 502.89062 32.25625Q503.53125 32.1 504.375 32.1L505.51562 32.1ZM511.34375 26.099998L511.34375 36.6L509.375 36.6L509.375 26.099998L511.34375 26.099998ZM512.9531 32.975L512.9531 32.834373Q512.9531 32.021873 513.1875 31.334373Q513.4219 30.646873 513.8594 30.146873Q514.3125 29.631248 514.9531 29.349998Q515.6094 29.068748 516.4375 29.068748Q517.28125 29.068748 517.9375 29.349998Q518.59375 29.631248 519.0469 30.146873Q519.5 30.646873 519.71875 31.334373Q519.9531 32.021873 519.9531 32.834373L519.9531 32.975Q519.9531 33.7875 519.71875 34.475Q519.5 35.1625 519.0469 35.678123Q518.59375 36.178123 517.9375 36.459373Q517.2969 36.740623 516.4531 36.740623Q515.625 36.740623 514.96875 36.459373Q514.3125 36.178123 513.8594 35.678123Q513.4219 35.1625 513.1875 34.475Q512.9531 33.7875 512.9531 32.975ZM514.9219 32.834373L514.9219 32.975Q514.9219 33.44375 515.0 33.85Q515.0781 34.240623 515.2656 34.553123Q515.4531 34.85 515.7344 35.021873Q516.03125 35.19375 516.4531 35.19375Q516.875 35.19375 517.15625 35.021873Q517.4531 34.85 517.625 34.553123Q517.8125 34.240623 517.8906 33.85Q517.9844 33.44375 517.9844 32.975L517.9844 32.834373Q517.9844 32.38125 517.8906 31.990623Q517.8125 31.584373 517.625 31.271873Q517.4531 30.959373 517.15625 30.787498Q516.8594 30.599998 516.4375 30.599998Q516.03125 30.599998 515.7344 30.787498Q515.4531 30.959373 515.2656 31.271873Q515.0781 31.584373 515.0 31.990623Q514.9219 32.38125 514.9219 32.834373ZM523.2344 30.818748L523.2344 36.6L521.2656 36.6L521.2656 29.209373L523.125 29.209373L523.2344 30.818748ZM525.46875 29.162498L525.4219 30.974998Q525.28125 30.959373 525.0781 30.943748Q524.875 30.928123 524.71875 30.928123Q524.2969 30.928123 523.9844 31.037498Q523.6875 31.131248 523.4844 31.334373Q523.2969 31.537498 523.1875 31.834373Q523.09375 32.13125 523.0781 32.50625L522.6875 32.38125Q522.6875 31.678123 522.8281 31.068748Q522.96875 30.459373 523.2344 30.006248Q523.5156 29.553123 523.9219 29.318748Q524.3281 29.068748 524.84375 29.068748Q525.0156 29.068748 525.1875 29.099998Q525.3594 29.115623 525.46875 29.162498ZM529.6719 36.740623Q528.8125 36.740623 528.125 36.459373Q527.4375 36.178123 526.9531 35.69375Q526.4844 35.19375 526.2344 34.553123Q525.9844 33.896873 525.9844 33.146873L525.9844 32.88125Q525.9844 32.0375 526.21875 31.349998Q526.46875 30.646873 526.90625 30.131248Q527.3594 29.615623 528.0 29.349998Q528.6406 29.068748 529.4531 29.068748Q530.2344 29.068748 530.84375 29.334373Q531.4531 29.584373 531.8594 30.068748Q532.28125 30.537498 532.4844 31.209373Q532.7031 31.881248 532.7031 32.69375L532.7031 33.50625L526.8281 33.50625L526.8281 32.19375L530.7656 32.19375L530.7656 32.053123Q530.7656 31.631248 530.625 31.318748Q530.4844 30.990623 530.1875 30.803123Q529.8906 30.599998 529.4375 30.599998Q529.0469 30.599998 528.7656 30.771873Q528.4844 30.943748 528.2969 31.256248Q528.125 31.568748 528.0469 31.974998Q527.96875 32.38125 527.96875 32.88125L527.96875 33.146873Q527.96875 33.6 528.09375 33.975Q528.21875 34.35 528.4531 34.63125Q528.6875 34.896873 529.0156 35.053123Q529.3594 35.19375 529.7969 35.19375Q530.3281 35.19375 530.78125 34.990623Q531.25 34.7875 531.5781 34.35L532.5469 35.396873Q532.3125 35.725 531.90625 36.0375Q531.5156 36.35 530.9531 36.553123Q530.3906 36.740623 529.6719 36.740623ZM536.9531 32.975L536.9531 32.834373Q536.9531 32.021873 537.1875 31.334373Q537.4219 30.646873 537.8594 30.146873Q538.3125 29.631248 538.9531 29.349998Q539.6094 29.068748 540.4375 29.068748Q541.28125 29.068748 541.9375 29.349998Q542.59375 29.631248 543.0469 30.146873Q543.5 30.646873 543.71875 31.334373Q543.9531 32.021873 543.9531 32.834373L543.9531 32.975Q543.9531 33.7875 543.71875 34.475Q543.5 35.1625 543.0469 35.678123Q542.59375 36.178123 541.9375 36.459373Q541.2969 36.740623 540.4531 36.740623Q539.625 36.740623 538.96875 36.459373Q538.3125 36.178123 537.8594 35.678123Q537.4219 35.1625 537.1875 34.475Q536.9531 33.7875 536.9531 32.975ZM538.9219 32.834373L538.9219 32.975Q538.9219 33.44375 539.0 33.85Q539.0781 34.240623 539.2656 34.553123Q539.4531 34.85 539.7344 35.021873Q540.03125 35.19375 540.4531 35.19375Q540.875 35.19375 541.15625 35.021873Q541.4531 34.85 541.625 34.553123Q541.8125 34.240623 541.8906 33.85Q541.9844 33.44375 541.9844 32.975L541.9844 32.834373Q541.9844 32.38125 541.8906 31.990623Q541.8125 31.584373 541.625 31.271873Q541.4531 30.959373 541.15625 30.787498Q540.8594 30.599998 540.4375 30.599998Q540.03125 30.599998 539.7344 30.787498Q539.4531 30.959373 539.2656 31.271873Q539.0781 31.584373 539.0 31.990623Q538.9219 32.38125 538.9219 32.834373ZM548.8906 29.209373L548.8906 30.599998L544.5781 30.599998L544.5781 29.209373L548.8906 29.209373ZM545.65625 27.381248L547.625 27.381248L547.625 34.365623Q547.625 34.69375 547.7031 34.865623Q547.78125 35.0375 547.9531 35.1Q548.125 35.1625 548.3906 35.1625Q548.5781 35.1625 548.71875 35.146873Q548.875 35.13125 548.96875 35.115623L548.9844 36.553123Q548.71875 36.646873 548.4219 36.69375Q548.1406 36.740623 547.78125 36.740623Q547.125 36.740623 546.6406 36.521873Q546.1719 36.303123 545.90625 35.834373Q545.65625 35.35 545.65625 34.56875L545.65625 27.381248ZM553.8906 29.209373L553.8906 30.599998L549.5781 30.599998L549.5781 29.209373L553.8906 29.209373ZM550.65625 27.381248L552.625 27.381248L552.625 34.365623Q552.625 34.69375 552.7031 34.865623Q552.78125 35.0375 552.9531 35.1Q553.125 35.1625 553.3906 35.1625Q553.5781 35.1625 553.71875 35.146873Q553.875 35.13125 553.96875 35.115623L553.9844 36.553123Q553.71875 36.646873 553.4219 36.69375Q553.1406 36.740623 552.78125 36.740623Q552.125 36.740623 551.6406 36.521873Q551.1719 36.303123 550.90625 35.834373Q550.65625 35.35 550.65625 34.56875L550.65625 27.381248ZM557.34375 29.209373L557.34375 36.6L555.375 36.6L555.375 29.209373L557.34375 29.209373ZM555.25 27.271873Q555.25 26.849998 555.5469 26.568748Q555.84375 26.287498 556.3594 26.287498Q556.8594 26.287498 557.15625 26.568748Q557.4531 26.849998 557.4531 27.271873Q557.4531 27.709373 557.15625 27.990623Q556.8594 28.271873 556.3594 28.271873Q555.84375 28.271873 555.5469 27.990623Q555.25 27.709373 555.25 27.271873ZM561.2344 30.740623L561.2344 36.6L559.2656 36.6L559.2656 29.209373L561.1094 29.209373L561.2344 30.740623ZM560.9531 32.646873L560.4219 32.646873Q560.4219 31.865623 560.6094 31.224998Q560.7969 30.568748 561.15625 30.084373Q561.5156 29.599998 562.0625 29.334373Q562.6094 29.068748 563.3125 29.068748Q563.8125 29.068748 564.21875 29.224998Q564.625 29.365623 564.9219 29.678123Q565.21875 29.974998 565.375 30.474998Q565.5469 30.974998 565.5469 31.662498L565.5469 36.6L563.5781 36.6L563.5781 31.881248Q563.5781 31.381248 563.4375 31.115623Q563.3125 30.834373 563.0625 30.724998Q562.8125 30.615623 562.4531 30.615623Q562.0781 30.615623 561.7969 30.771873Q561.5156 30.928123 561.3281 31.209373Q561.1406 31.474998 561.0469 31.849998Q560.9531 32.225 560.9531 32.646873ZM565.3594 32.4125L564.65625 32.50625Q564.65625 31.787498 564.8281 31.162498Q565.0156 30.537498 565.375 30.068748Q565.7344 29.599998 566.2656 29.334373Q566.8125 29.068748 567.5 29.068748Q568.03125 29.068748 568.46875 29.224998Q568.90625 29.381248 569.21875 29.709373Q569.53125 30.037498 569.7031 30.568748Q569.875 31.099998 569.875 31.881248L569.875 36.6L567.8906 36.6L567.8906 31.881248Q567.8906 31.365623 567.75 31.099998Q567.625 30.818748 567.375 30.724998Q567.125 30.615623 566.78125 30.615623Q566.4375 30.615623 566.15625 30.756248Q565.8906 30.896873 565.71875 31.146873Q565.5469 31.381248 565.4531 31.709373Q565.3594 32.0375 565.3594 32.4125ZM570.9531 32.975L570.9531 32.834373Q570.9531 32.021873 571.1875 31.334373Q571.4219 30.646873 571.8594 30.146873Q572.3125 29.631248 572.9531 29.349998Q573.6094 29.068748 574.4375 29.068748Q575.28125 29.068748 575.9375 29.349998Q576.59375 29.631248 577.0469 30.146873Q577.5 30.646873 577.71875 31.334373Q577.9531 32.021873 577.9531 32.834373L577.9531 32.975Q577.9531 33.7875 577.71875 34.475Q577.5 35.1625 577.0469 35.678123Q576.59375 36.178123 575.9375 36.459373Q575.2969 36.740623 574.4531 36.740623Q573.625 36.740623 572.96875 36.459373Q572.3125 36.178123 571.8594 35.678123Q571.4219 35.1625 571.1875 34.475Q570.9531 33.7875 570.9531 32.975ZM572.9219 32.834373L572.9219 32.975Q572.9219 33.44375 573.0 33.85Q573.0781 34.240623 573.2656 34.553123Q573.4531 34.85 573.7344 35.021873Q574.03125 35.19375 574.4531 35.19375Q574.875 35.19375 575.15625 35.021873Q575.4531 34.85 575.625 34.553123Q575.8125 34.240623 575.8906 33.85Q575.9844 33.44375 575.9844 32.975L575.9844 32.834373Q575.9844 32.38125 575.8906 31.990623Q575.8125 31.584373 575.625 31.271873Q575.4531 30.959373 575.15625 30.787498Q574.8594 30.599998 574.4375 30.599998Q574.03125 30.599998 573.7344 30.787498Q573.4531 30.959373 573.2656 31.271873Q573.0781 31.584373 573.0 31.990623Q572.9219 32.38125 572.9219 32.834373Z" fill-rule="nonzero"/></svg>